HIERARCHY
ROOT root
{
	OFFSET	0	13.1	24.9
	CHANNELS 6  Xposition Yposition Zposition Xrotation Yrotation Zrotation
	JOINT spine_1
	{
		OFFSET	0	9.99999	0
		CHANNELS 3  Xrotation Yrotation Zrotation
		JOINT spine_2
		{
			OFFSET	0	112	-10
			CHANNELS 3  Xrotation Yrotation Zrotation
			JOINT spine_3
			{
				OFFSET	0	206.5	19.3
				CHANNELS 3  Xrotation Yrotation Zrotation
				JOINT spine_4
				{
					OFFSET	0	110.4	14.6
					CHANNELS 3  Xrotation Yrotation Zrotation
					JOINT neck_1
					{
						OFFSET	0	71.8	-50.3
						CHANNELS 3  Xrotation Yrotation Zrotation
						JOINT neck_2
						{
							OFFSET	0	86.2	-25.8
							CHANNELS 3  Xrotation Yrotation Zrotation
							JOINT head_ee
							{
								OFFSET	0	179.8	-8.7
								CHANNELS 3  Xrotation Yrotation Zrotation
								End Site
								{
									OFFSET	1	0	0
								}
							}
						}
					}
					JOINT left_clavicle
					{
						OFFSET	-43.2	22.4	-70.8
						CHANNELS 3  Xrotation Yrotation Zrotation
						JOINT left_shoulder
						{
							OFFSET	-93.9	-5.79999	48.7
							CHANNELS 3  Xrotation Yrotation Zrotation
							JOINT left_elbow
							{
								OFFSET	-291.4	-30.8	15.2
								CHANNELS 3  Xrotation Yrotation Zrotation
								JOINT left_lowarm_twist
								{
									OFFSET	-110.7	-3.89999	13.6
									CHANNELS 3  Xrotation Yrotation Zrotation
									JOINT left_hand
									{
										OFFSET	-110.7	-3.89999	13.6
										CHANNELS 3  Xrotation Yrotation Zrotation
										JOINT left_ee
										{
											OFFSET	-80.8	-5.10001	12.1
											CHANNELS 3  Xrotation Yrotation Zrotation
											End Site
											{
												OFFSET	1	0	0
											}
										}
									}
								}
							}
						}
					}
					JOINT right_clavicle
					{
						OFFSET	43.2	22.4	-70.8
						CHANNELS 3  Xrotation Yrotation Zrotation
						JOINT right_shoulder
						{
							OFFSET	93.9	-5.79999	48.7
							CHANNELS 3  Xrotation Yrotation Zrotation
							JOINT right_elbow
							{
								OFFSET	291.4	-30.8	15.2
								CHANNELS 3  Xrotation Yrotation Zrotation
								JOINT right_lowarm_twist
								{
									OFFSET	110.7	-3.89999	13.6
									CHANNELS 3  Xrotation Yrotation Zrotation
									JOINT right_hand
									{
										OFFSET	110.7	-3.89999	13.6
										CHANNELS 3  Xrotation Yrotation Zrotation
										JOINT right_ee
										{
											OFFSET	80.8	-5.10001	12.1
											CHANNELS 3  Xrotation Yrotation Zrotation
											End Site
											{
												OFFSET	1	0	0
											}
										}
									}
								}
							}
						}
					}
				}
			}
		}
	}
	JOINT left_hip
	{
		OFFSET	-82.8	-127.5	0.300001
		CHANNELS 3  Xrotation Yrotation Zrotation
		JOINT left_knee
		{
			OFFSET	-28.2	-396.7	2.2
			CHANNELS 3  Xrotation Yrotation Zrotation
			JOINT left_ankle
			{
				OFFSET	-11.7	-411.3	35.4
				CHANNELS 3  Xrotation Yrotation Zrotation
				JOINT left_toes
				{
					OFFSET	0	-60	-88.6
					CHANNELS 3  Xrotation Yrotation Zrotation
					JOINT left_foot_ee
					{
						OFFSET	-22.5	-16.5	-42.2
						CHANNELS 3  Xrotation Yrotation Zrotation
						End Site
						{
							OFFSET	1	0	0
						}
					}
				}
			}
		}
	}
	JOINT right_hip
	{
		OFFSET	82.8	-127.5	0.300001
		CHANNELS 3  Xrotation Yrotation Zrotation
		JOINT right_knee
		{
			OFFSET	28.2	-396.7	2.2
			CHANNELS 3  Xrotation Yrotation Zrotation
			JOINT right_ankle
			{
				OFFSET	11.7	-411.3	35.4
				CHANNELS 3  Xrotation Yrotation Zrotation
				JOINT right_toes
				{
					OFFSET	0	-60	-88.6
					CHANNELS 3  Xrotation Yrotation Zrotation
					JOINT right_foot_ee
					{
						OFFSET	22.5	-16.5	-42.2
						CHANNELS 3  Xrotation Yrotation Zrotation
						End Site
						{
							OFFSET	1	0	0
						}
					}
				}
			}
		}
	}
}
MOTION
Frames: 6
Frame Time: 0.02
2746.86370865 687.297 -1659.56865037 5.37013143161 70.309267731 6.23046255858 1.95287 -0.733002 -5.52175 1.96974 -0.380708 -5.55706 2.00625 0.603547 -5.53735 1.96359 -0.277151 -5.56316 -13.7234 4.32854 8.09857 -13.5459 3.26019 9.02703 -0.0 0.0 -0.0 9.75419 -1.23703 19.1993 -11.0685 -32.0386 61.2167 1.13007 -29.2394 0.294786 70.319 -2.77354 -7.97276 -0.0163361 13.4996 5.44449 -0.0 0.0 -0.0 -9.79997 -5.23635 17.9876 -6.66004 30.8984 -72.2424 1.25108 31.7872 -0.356242 7.44137 -0.202129 0.928393 1.08249 4.24566 -5.49972 0.0 0.0 0.0 -1.71984 -3.39504 -3.99882 -2.65762 0.100265 0.395497 33.1918 26.4107 -4.50652 28.9675 -0.0 -0.0 -0.0 0.0 -0.0 16.7028 2.28395 -9.67201 -55.6367 1.7477 -8.02748 -24.9028 -29.9786 -4.02159 -15.0519 0.0 0.0 0.0 0.0 0.0 
2743.26206213 687.126 -1652.41835006 5.26330339487 72.0345944057 6.49013369504 1.94009 -0.71151 -5.61989 1.95758 -0.353044 -5.65363 1.99199 0.649395 -5.62738 1.94791 -0.246024 -5.65928 -15.2442 6.58822 9.44693 -15.0328 7.03418 11.0868 -0.0 0.0 -0.0 10.3204 -3.94031 20.4808 -10.901 -29.8544 58.6847 1.19074 -30.5333 0.325014 74.6609 -3.23781 -8.28062 0.550134 14.2419 9.30308 -0.0 0.0 -0.0 -9.56426 -5.38972 17.4577 -6.74826 31.7249 -73.5003 1.11676 28.9509 -0.288312 6.4131 -0.181408 0.798677 0.993002 4.25412 -4.89108 0.0 0.0 0.0 -4.0525 -0.221466 -4.50666 2.31769 -0.102357 -0.340887 32.0823 26.264 -4.3782 28.8705 -0.0 -0.0 -0.0 0.0 -0.0 17.3616 2.89342 -11.3065 -49.5626 1.18429 -7.2808 -25.4588 -30.0391 -4.11304 -21.0271 0.0 0.0 0.0 0.0 0.0 
2737.36417119 689.268 -1638.14274779 7.82548453542 74.2772431015 4.25683060573 1.99505 -0.713161 -5.85024 2.01401 -0.340108 -5.88361 2.04814 0.697199 -5.85216 2.00046 -0.234134 -5.88876 -17.5318 7.45291 10.3936 -17.3031 8.60884 12.4585 -0.0 0.0 -0.0 10.6484 -5.27889 21.22 -10.7973 -28.2653 57.0982 1.26459 -32.0634 0.363387 76.8928 -3.48519 -8.425 0.925351 13.2645 11.3326 -0.0 0.0 -0.0 -9.47161 -6.62262 16.8589 -7.77433 32.0334 -73.586 1.06349 27.7804 -0.263001 5.97435 -0.171858 0.743444 0.722106 3.70152 -3.29388 0.0 0.0 0.0 -5.31093 1.9257 -5.21761 3.79931 -0.174998 -0.556573 31.3575 26.3285 -4.29772 29.2426 -0.0 -0.0 -0.0 0.0 -0.0 17.7865 -1.41899 -11.8952 -43.3506 0.693573 -6.46085 -24.808 -29.6993 -3.99872 -22.848 0.0 0.0 0.0 0.0 0.0 
2733.51636594 688.437 -1623.51123175 7.41873307254 74.774314768 5.05066768907 1.94565 -0.643511 -6.11337 1.96639 -0.253947 -6.14179 1.99285 0.833946 -6.0904 1.94116 -0.136503 -6.14551 -17.7962 7.64089 9.60479 -17.6317 9.45708 11.8261 -0.0 0.0 -0.0 10.8218 -5.16658 21.5922 -9.42437 -26.9942 56.2499 1.48217 -36.2846 0.485683 79.7028 -3.80432 -8.59293 1.29568 11.7163 13.1713 -0.0 0.0 -0.0 -9.07039 -6.19854 16.203 -8.21951 31.994 -73.7592 0.804245 21.7222 -0.154309 5.75722 -0.166975 0.716137 0.488231 4.28919 -1.47159 0.0 0.0 0.0 -6.99415 2.86325 -5.40091 5.80525 -0.282206 -0.845516 31.4826 24.9686 -4.27581 28.0965 -0.0 -0.0 -0.0 0.0 -0.0 19.8075 -0.982386 -13.4198 -35.6534 0.213644 -5.38025 -25.2018 -29.3855 -4.05367 -26.1307 0.0 0.0 0.0 0.0 0.0 
2725.43397505 689.583 -1616.79233256 9.00428741014 76.7198046734 3.77526222742 1.85856 -0.947496 -6.22077 1.87991 -0.550529 -6.26819 1.94029 0.568493 -6.2666 1.88579 -0.426326 -6.27783 -17.0292 8.63706 9.0664 -16.9322 11.5306 11.6142 -0.0 0.0 -0.0 11.0718 -6.64653 22.1711 -8.81781 -25.643 55.5294 1.64404 -39.1566 0.58475 81.3663 -3.99698 -8.6849 1.51968 8.99705 13.6645 -0.0 0.0 -0.0 -9.19201 -6.27192 16.4202 -9.35096 31.9836 -73.9275 0.768315 20.8368 -0.141269 5.6476 -0.164471 0.702358 0.354193 1.42826 -1.77057 0.0 0.0 0.0 -8.90793 1.1582 -5.87837 7.06109 -0.354464 -1.02447 29.2834 24.6098 -4.01494 27.2082 -0.0 -0.0 -0.0 0.0 -0.0 21.6987 2.10911 -13.9464 -31.7005 0.024814 -4.8033 -25.1215 -28.356 -4.01406 -27.5648 0.0 0.0 0.0 0.0 0.0 
2717.94416579 692.417 -1612.62898826 14.1607249314 78.4109639858 -0.812725240461 1.4556 -1.03608 -6.30406 1.47747 -0.633672 -6.35691 1.55051 0.545443 -6.36506 1.49433 -0.464546 -6.37145 -17.273 9.47652 9.21435 -17.214 13.1118 12.0939 -0.0 0.0 -0.0 11.2572 -6.95617 22.5841 -9.06834 -26.0041 53.988 1.90713 -43.3678 0.758379 81.8102 -4.04884 -8.7085 1.76833 10.1039 15.7203 -0.0 0.0 -0.0 -8.86591 -7.1915 15.4787 -10.5199 32.1994 -73.5391 0.681337 18.6503 -0.111882 5.67578 -0.165117 0.705899 0.276899 2.85028 -0.655258 0.0 0.0 0.0 -9.60694 3.28973 -6.79147 6.95641 -0.348291 -1.00962 30.2237 24.5184 -4.12148 27.261 -0.0 -0.0 -0.0 0.0 -0.0 22.3188 0.46382 -12.7293 -28.8712 -0.0856421 -4.38321 -23.9921 -29.1276 -3.85246 -28.9795 0.0 0.0 0.0 0.0 0.0 
